<svg width="121" height="24" viewBox="0 0 121 24" fill="none" xmlns="http://www.w3.org/2000/svg">
<path d="M1.43466 19V4.45455H10.7528V6.66335H4.0696V10.6122H10.1136V12.821H4.0696V19H1.43466ZM13.1534 19V4.45455H22.6136V6.66335H15.7884V10.6122H22.1236V12.821H15.7884V16.7912H22.6705V19H13.1534ZM27.1697 19H24.3572L29.478 4.45455H32.7308L37.8587 19H35.0462L31.1612 7.4375H31.0476L27.1697 19ZM27.2621 13.2969H34.9325V15.4134H27.2621V13.2969ZM37.3775 6.66335V4.45455H48.9826V6.66335H44.4869V19H41.8732V6.66335H37.3775ZM60.3888 4.45455H63.0238V13.9574C63.0238 14.9991 62.7776 15.9152 62.2852 16.706C61.7975 17.4967 61.1109 18.1146 60.2255 18.5597C59.3401 19 58.3055 19.2202 57.1218 19.2202C55.9334 19.2202 54.8964 19 54.011 18.5597C53.1256 18.1146 52.439 17.4967 51.9513 16.706C51.4637 15.9152 51.2198 14.9991 51.2198 13.9574V4.45455H53.8548V13.7372C53.8548 14.3433 53.9873 14.883 54.2525 15.3565C54.5224 15.83 54.9012 16.2017 55.3888 16.4716C55.8765 16.7367 56.4542 16.8693 57.1218 16.8693C57.7894 16.8693 58.3671 16.7367 58.8548 16.4716C59.3472 16.2017 59.726 15.83 59.9911 15.3565C60.2563 14.883 60.3888 14.3433 60.3888 13.7372V4.45455ZM65.8878 19V4.45455H71.3423C72.4598 4.45455 73.3973 4.64867 74.1548 5.03693C74.9171 5.42519 75.4924 5.9697 75.8807 6.67045C76.2737 7.36648 76.4702 8.1785 76.4702 9.10653C76.4702 10.0393 76.2713 10.849 75.8736 11.5355C75.4806 12.2173 74.9006 12.7453 74.1335 13.1193C73.3665 13.4886 72.4242 13.6733 71.3068 13.6733H67.4219V11.4858H70.9517C71.6051 11.4858 72.1402 11.3958 72.5568 11.2159C72.9735 11.0312 73.2813 10.7637 73.4801 10.4134C73.6837 10.0582 73.7855 9.62263 73.7855 9.10653C73.7855 8.59044 73.6837 8.15009 73.4801 7.78551C73.2765 7.41619 72.9664 7.13684 72.5497 6.94744C72.133 6.75331 71.5956 6.65625 70.9375 6.65625H68.5227V19H65.8878ZM73.402 12.4091L77.0028 19H74.0625L70.5256 12.4091H73.402ZM78.8956 19V4.45455H88.3558V6.66335H81.5305V10.6122H87.8658V12.821H81.5305V16.7912H88.4126V19H78.8956ZM98.9489 8.45312C98.8826 7.83286 98.6032 7.34991 98.1108 7.00426C97.6231 6.65862 96.9886 6.4858 96.2074 6.4858C95.6581 6.4858 95.187 6.56866 94.794 6.73438C94.401 6.90009 94.1004 7.125 93.892 7.40909C93.6837 7.69318 93.5772 8.01752 93.5724 8.3821C93.5724 8.68513 93.6411 8.94792 93.7784 9.17045C93.9205 9.39299 94.1122 9.58239 94.3537 9.73864C94.5952 9.89015 94.8627 10.018 95.1562 10.1222C95.4498 10.2263 95.7457 10.3139 96.044 10.3849L97.4077 10.7259C97.9569 10.8537 98.4848 11.0265 98.9915 11.2443C99.5028 11.4621 99.9598 11.7367 100.362 12.0682C100.769 12.3996 101.091 12.7997 101.328 13.2685C101.565 13.7372 101.683 14.2865 101.683 14.9162C101.683 15.7685 101.465 16.5189 101.03 17.1676C100.594 17.8116 99.9645 18.3158 99.1406 18.6804C98.3215 19.0402 97.3295 19.2202 96.1648 19.2202C95.0331 19.2202 94.0507 19.045 93.2173 18.6946C92.3887 18.3442 91.7401 17.8329 91.2713 17.1605C90.8073 16.4882 90.5563 15.669 90.5185 14.7031H93.1108C93.1487 15.2098 93.3049 15.6312 93.5795 15.9673C93.8542 16.3035 94.2116 16.5545 94.652 16.7202C95.0971 16.8859 95.5942 16.9688 96.1435 16.9688C96.7164 16.9688 97.2183 16.8835 97.6491 16.7131C98.0848 16.5379 98.4257 16.2964 98.6719 15.9886C98.9181 15.6761 99.0436 15.3116 99.0483 14.8949C99.0436 14.5161 98.9323 14.2036 98.7145 13.9574C98.4967 13.7064 98.1913 13.4981 97.7983 13.3324C97.41 13.1619 96.9555 13.0104 96.4347 12.8778L94.7798 12.4517C93.5819 12.1439 92.6349 11.6776 91.9389 11.0526C91.2476 10.4228 90.902 9.58712 90.902 8.54545C90.902 7.68845 91.134 6.93797 91.598 6.29403C92.0668 5.65009 92.7036 5.15057 93.5085 4.79545C94.3134 4.43561 95.2249 4.25568 96.2429 4.25568C97.2751 4.25568 98.1795 4.43561 98.956 4.79545C99.7372 5.15057 100.35 5.64536 100.795 6.27983C101.241 6.90956 101.47 7.634 101.484 8.45312H98.9489Z" fill="white"/>
<path d="M110 3.82056L115 9.68518L120 3.82056" stroke="white" stroke-width="2" stroke-linecap="round" stroke-linejoin="round"/>
</svg>
